<svg viewBox="140 90 220 230" xmlns="http://www.w3.org/2000/svg"><defs><linearGradient id="gradLeft" x1="0%" y1="0%" x2="100%" y2="100%"><stop offset="0%" style="stop-color:#1a3b52;stop-opacity:1" /><stop offset="100%" style="stop-color:#2a506b;stop-opacity:1" /></linearGradient><linearGradient id="gradRight" x1="0%" y1="0%" x2="0%" y2="100%"><stop offset="0%" style="stop-color:#7ad3db;stop-opacity:1" /><stop offset="100%" style="stop-color:#5bc0cf;stop-opacity:1" /></linearGradient><linearGradient id="gradTop" x1="0%" y1="0%" x2="0%" y2="100%"><stop offset="0%" style="stop-color:#345e75;stop-opacity:1" /><stop offset="100%" style="stop-color:#4a7c94;stop-opacity:1" /></linearGradient><filter id="glow"><feGaussianBlur stdDeviation="2" result="coloredBlur"/><feMerge><feMergeNode in="coloredBlur"/><feMergeNode in="SourceGraphic"/></feMerge></filter></defs><g transform="translate(150, 100)"><path d="M100 0 L200 50 L100 100 L0 50 Z" fill="url(#gradTop)" /><path d="M0 50 L100 100 L100 215 L0 165 Z" fill="url(#gradLeft)" /><path d="M100 100 L200 50 L200 165 L100 215 Z" fill="url(#gradRight)" /><path d="M100 100 L145 78 L145 140 L100 165 L55 140 L55 78 Z" fill="#1f3a4d" opacity="0.6" /><path d="M55 78 L100 100 L145 78 L100 55 Z" fill="#142836" opacity="0.8"/><g stroke="white" stroke-width="1.2" opacity="0.7" stroke-linecap="round"><line x1="100" y1="25" x2="100" y2="75" /><line x1="100" y1="25" x2="85" y2="40" /><line x1="30" y1="80" x2="70" y2="120" /><line x1="70" y1="120" x2="30" y2="180" /><line x1="30" y1="180" x2="60" y2="190" /><line x1="170" y1="80" x2="130" y2="120" /><line x1="130" y1="120" x2="160" y2="160" /><line x1="160" y1="160" x2="130" y2="190" /></g><g fill="white" filter="url(#glow)"><circle cx="100" cy="25" r="2.5" /><circle cx="100" cy="75" r="2.5" /><circle cx="85" cy="40" r="2.5" /><circle cx="30" cy="80" r="2.5" /><circle cx="70" cy="120" r="2.5" /><circle cx="30" cy="180" r="2.5" /><circle cx="60" cy="190" r="2" /><circle cx="170" cy="80" r="2.5" /><circle cx="130" cy="120" r="2.5" /><circle cx="160" cy="160" r="2.5" /><circle cx="130" cy="190" r="2.5" /></g></g></svg>